<svg width="107" height="107" viewBox="0 0 107 107" fill="none" xmlns="http://www.w3.org/2000/svg">
<path d="M48.0314 0.105381C51.2314 0.0120477 54.4447 -0.107953 57.6447 0.18538C58.8047 3.05205 59.2981 6.13205 59.9781 9.13205C61.8047 9.86538 63.6181 10.5987 65.4314 11.372C68.0447 9.83872 70.4447 7.73205 73.4181 6.93205C76.3114 8.05205 79.0047 10.7187 80.0314 13.692C78.8581 16.3987 77.0581 18.7454 75.4581 21.1854C76.2047 23.0387 76.9647 24.8787 77.7381 26.7321C80.8314 27.3854 83.9114 28.1054 86.9914 28.8254C87.0314 31.9854 87.4981 35.2521 86.5914 38.3454C83.6981 39.2654 80.6981 39.7054 77.7381 40.292C76.9647 42.052 76.1914 43.7987 75.4047 45.5454C76.8981 48.2254 79.2847 50.6121 79.9514 53.6387C78.7114 56.5721 75.6847 58.332 73.4581 60.5187C70.7514 58.9187 68.0714 57.2787 65.4181 55.5987C63.5647 56.3721 61.7247 57.1321 59.8847 57.8787C59.5247 59.4921 59.1781 61.092 58.8181 62.7054C72.4447 62.9987 86.1914 61.9987 99.7381 63.1854C100.511 68.9187 99.9647 74.7321 100.111 80.4921C102.365 81.5854 105.351 82.1054 106.498 84.6254C107.245 89.8654 106.871 95.212 106.831 100.492C107.111 103.385 104.418 106.105 101.525 105.985C95.7381 106.132 89.9114 106.239 84.1247 105.905C81.2714 105.785 79.3647 102.865 79.4847 100.199C79.3781 95.4787 79.2447 90.732 79.5914 86.012C80.0447 82.612 83.7114 81.5454 86.4447 80.5054C86.4447 79.1187 86.4447 77.7321 86.4581 76.3454C77.9114 76.3454 69.3781 76.3454 60.8314 76.3454C60.6714 79.7854 61.2447 83.412 59.8981 86.6787C57.7381 91.2787 50.4181 91.7454 47.7914 87.372C45.8847 84.0387 46.6181 80.0121 46.3647 76.3454C37.8314 76.3454 29.3114 76.3454 20.7781 76.3454C20.7781 77.3721 20.7914 79.4254 20.7914 80.4521C23.9381 81.5321 27.9247 83.1454 27.9381 87.1187C28.1514 92.2387 28.6981 97.5454 27.3781 102.545C25.4181 107.639 18.9381 105.679 14.7381 106.105C10.0581 105.545 3.09807 107.972 0.644739 102.492C-0.421928 97.3854 0.138072 92.052 0.218072 86.8787C0.164739 83.0254 4.21807 81.7187 7.1114 80.4787C7.1514 74.5854 6.8314 68.6654 7.5914 62.7987C20.7647 62.5454 33.9514 62.7454 47.1247 62.6787C46.7781 61.1454 46.4314 59.6254 46.0981 58.092C44.2447 57.3187 42.3914 56.5454 40.5381 55.7854C37.8714 57.4387 35.3247 59.4121 32.3247 60.4521C29.7114 58.7587 27.2847 56.5854 25.8847 53.7587C27.1381 50.9187 28.9247 48.3587 30.5514 45.7187C29.7647 43.972 29.0047 42.2254 28.2714 40.4787C25.1781 39.7987 22.0847 39.1187 19.0181 38.3587C18.8581 35.5187 18.5914 32.652 18.9381 29.812C21.1914 27.2654 25.2714 27.7187 28.2981 26.692C29.0314 24.852 29.7647 23.012 30.4847 21.172C28.8847 18.6654 27.1247 16.252 25.8181 13.5854C27.3647 10.8254 29.6581 8.46538 32.3647 6.85205C35.3914 7.73205 37.8981 9.75871 40.5647 11.3587C42.3914 10.5987 44.2181 9.85205 46.0581 9.11871C46.6847 6.10538 47.3514 3.10538 48.0314 0.105381ZM51.8981 4.74538C51.1914 7.41205 50.6847 10.1454 49.6847 12.7187C46.6981 14.492 43.3514 15.5454 40.1781 16.9187C37.2714 15.3454 34.6181 12.2654 30.9914 13.0787C32.5647 15.8654 34.2847 18.5587 35.9514 21.292C34.5114 24.3187 33.4447 27.5454 31.7514 30.4521C29.2181 31.3854 26.5514 31.8654 23.9914 32.7187C22.8981 37.012 30.3247 34.932 32.0847 37.6254C33.4847 40.452 34.9381 43.3454 35.6447 46.4254C34.4047 49.4387 31.5247 51.9454 32.1114 55.4654C34.8714 53.9454 37.5781 52.292 40.2314 50.572C43.3514 51.9854 46.6314 53.0787 49.6181 54.7587C50.6847 57.2654 51.1381 59.9854 51.8314 62.6254C52.4047 62.6521 53.5514 62.732 54.1247 62.7587C54.7647 60.1187 55.2581 57.4121 56.2314 54.8654C59.2181 53.1321 62.5114 52.0254 65.6314 50.5321C68.0447 52.0521 70.4581 53.5854 72.8447 55.1454C73.3247 54.7854 74.2847 54.0654 74.7647 53.6921C73.2314 51.4121 71.6181 49.1854 70.3647 46.7454C71.0181 43.3854 72.5247 40.1454 74.2181 37.1854C77.3247 35.9187 80.6314 35.212 83.6314 33.652C80.5647 32.3054 77.2847 31.5587 74.1647 30.3587C72.5647 27.452 71.4181 24.3321 70.0181 21.3321C71.5381 18.3321 74.7114 15.6654 73.8847 11.9721C71.1114 13.5454 68.5114 15.4654 65.5514 16.692C62.4847 15.7054 59.4714 14.5054 56.6314 12.9721C55.1381 10.4121 54.8447 7.37205 53.9914 4.58538C53.4714 4.62538 52.4181 4.70538 51.8981 4.74538ZM11.7781 67.3454C11.7781 71.9054 11.7781 76.4521 11.7781 81.0121C12.9114 81.0121 15.1514 81.0254 16.2847 81.0254C16.4447 78.0254 16.5381 75.0387 16.9647 72.0654C41.4981 72.0654 66.0314 71.8121 90.5514 72.1987C90.7247 75.1321 90.7781 78.0787 90.8447 81.0387C91.9914 81.0254 94.2981 81.0121 95.4447 81.0121C95.4447 76.4521 95.4314 71.9054 95.4447 67.3454C67.5514 67.3454 39.6714 67.3454 11.7781 67.3454ZM51.0181 76.3854C51.4847 79.6121 49.5914 86.3587 54.8314 85.9054C56.6581 83.0787 55.4981 79.492 55.8047 76.332C54.2047 76.3454 52.6181 76.3721 51.0181 76.3854ZM5.09807 85.8254C4.6314 91.132 4.6314 96.4787 5.13807 101.772C11.1781 102.132 17.2314 102.105 23.2714 101.812C23.5114 96.4654 23.5381 91.1187 23.2447 85.7854C17.2047 85.6254 11.1381 85.5987 5.09807 85.8254ZM84.2314 85.8254C84.0447 91.1454 84.0314 96.4787 84.2847 101.785C90.2847 102.132 96.2981 102.132 102.298 101.745C102.431 96.5587 102.711 91.3454 102.231 86.1721C96.3114 85.0787 90.2181 85.8254 84.2314 85.8254Z" fill="#C169FF"/>
<path d="M0.298147 5.38533C1.45815 5.35866 3.79148 5.31866 4.96481 5.29199C4.95148 14.5587 4.88481 23.8253 5.00481 33.092C3.81815 33.052 1.45815 32.972 0.271484 32.932C0.324818 23.7453 0.298147 14.5587 0.298147 5.38533Z" fill="#C169FF"/>
<path d="M102.485 5.30542C103.592 5.33209 105.805 5.38542 106.912 5.39876C106.898 14.5854 106.885 23.7588 106.925 32.9321C105.445 32.9454 103.965 32.9588 102.485 32.9721C102.565 23.7588 102.565 14.5321 102.485 5.30542Z" fill="#C169FF"/>
<path d="M9.57812 14.5854C10.7515 14.5454 13.1115 14.4787 14.2848 14.4387C14.2181 23.7054 14.2181 32.9854 14.2848 42.2521C13.1115 42.2121 10.7515 42.1454 9.57812 42.1054C9.59146 32.9321 9.60479 23.7587 9.57812 14.5854Z" fill="#C169FF"/>
<path d="M93.2046 14.6388C94.4046 14.5722 96.7913 14.4522 97.9913 14.3855C97.8179 23.6922 97.8179 32.9988 97.9913 42.3055C96.7913 42.2388 94.4046 42.1188 93.2046 42.0522C93.2579 32.9188 93.2579 23.7722 93.2046 14.6388Z" fill="#C169FF"/>
<path d="M48.6046 19.7055C58.0713 16.2388 69.0713 24.9321 67.6579 34.9588C66.9779 43.3455 58.1246 49.8121 49.9246 47.6255C42.0979 46.1321 36.5646 37.4521 38.9246 29.7455C40.1646 25.0255 43.9779 21.1721 48.6046 19.7055ZM48.5779 24.7455C41.9912 27.5455 40.9379 37.5321 46.8712 41.5721C52.8712 46.5855 63.5913 41.5988 62.8313 33.5721C63.2179 26.4921 54.7246 21.4388 48.5779 24.7455Z" fill="#C169FF"/>
<path d="M9.59146 46.732C10.7515 46.7053 13.0848 46.6653 14.2448 46.6387C14.2581 47.8253 14.2581 50.212 14.2581 51.3987C13.0848 51.372 10.7515 51.332 9.57812 51.3053C9.57812 50.1587 9.59146 47.8787 9.59146 46.732Z" fill="#C169FF"/>
<path d="M93.2183 46.7455C94.3916 46.7188 96.7383 46.6522 97.9249 46.6255C97.9249 47.8255 97.9249 50.2255 97.9383 51.4255C96.7516 51.3855 94.3916 51.3188 93.2183 51.2788C93.2183 50.1455 93.2183 47.8788 93.2183 46.7455Z" fill="#C169FF"/>
</svg>
