<svg xmlns="http://www.w3.org/2000/svg" xmlns:xlink="http://www.w3.org/1999/xlink" width="96.287" height="90.509" viewBox="0 0 96.287 90.509">
  <defs>
    <clipPath id="clip-path">
      <rect id="Rectángulo_7564" data-name="Rectángulo 7564" width="96.287" height="90.509" fill="#c169ff"/>
    </clipPath>
  </defs>
  <g id="Grupo_11550" data-name="Grupo 11550" transform="translate(0 0)">
    <g id="Grupo_11476" data-name="Grupo 11476" transform="translate(0 0)" clip-path="url(#clip-path)">
      <path id="Trazado_21526" data-name="Trazado 21526" d="M94.2,72.63H90.189V26.091a7.705,7.705,0,0,0-7.7-7.7H65.155a18.038,18.038,0,0,0-34.021,0H13.641a7.571,7.571,0,0,0-7.543,7.7V72.63H2.087A2.125,2.125,0,0,0,0,74.716,12.125,12.125,0,0,0,12.036,86.751H84.252A12.122,12.122,0,0,0,96.287,74.716,2.023,2.023,0,0,0,94.2,72.63M82.648,22.4a3.734,3.734,0,0,1,3.691,3.693V72.63H82.326V28.5A2.1,2.1,0,0,0,80.4,26.411H66.278a16.752,16.752,0,0,0,0-4.013ZM58.094,72.63a1.975,1.975,0,0,0-1.765,1.124l-1.445,2.889H41.243L39.8,73.753a1.973,1.973,0,0,0-1.765-1.124H17.974V30.422h13a18.038,18.038,0,0,0,34.021,0h13V72.63Zm-13-53.118a3.048,3.048,0,0,1,3.05-3.05,2.951,2.951,0,0,1,3.048,3.05,3.049,3.049,0,1,1-6.1,0m3.05,6.9A14.3,14.3,0,0,1,59.7,32.348a14,14,0,0,1-23.108,0,14.3,14.3,0,0,1,11.554-5.937m0-16.048A14.143,14.143,0,0,1,62.266,24.485a11.079,11.079,0,0,1-.641,4.011,19.722,19.722,0,0,0-7.7-5.133,7.024,7.024,0,0,0,1.283-4.013,7.061,7.061,0,1,0-14.122,0,7.013,7.013,0,0,0,1.285,4.013,17.659,17.659,0,0,0-7.7,5.133,16.149,16.149,0,0,1-.641-4.011A14.353,14.353,0,0,1,48.144,10.364M10.11,26.091A3.734,3.734,0,0,1,13.8,22.4h16.53a16.738,16.738,0,0,0,0,4.013H16.208A2.123,2.123,0,0,0,14.123,28.5V72.63H10.11ZM84.252,82.579H12.036a7.911,7.911,0,0,1-7.7-6.1H36.91l1.445,2.887a1.972,1.972,0,0,0,1.765,1.124H56.168a1.971,1.971,0,0,0,1.765-1.124l1.444-2.887H91.954a7.908,7.908,0,0,1-7.7,6.1" transform="translate(0 3.757)" fill="#c169ff"/>
      <rect id="Rectángulo_7554" data-name="Rectángulo 7554" width="4.013" height="4.011" transform="translate(60.179 68.364)" fill="#c169ff"/>
      <rect id="Rectángulo_7555" data-name="Rectángulo 7555" width="4.011" height="4.011" transform="translate(66.278 68.364)" fill="#c169ff"/>
      <path id="Trazado_21527" data-name="Trazado 21527" d="M41.1,7.843a2.1,2.1,0,0,0,2.087-1.926,2.087,2.087,0,0,0-4.173,0A2.1,2.1,0,0,0,41.1,7.843" transform="translate(23.087 2.267)" fill="#c169ff"/>
      <path id="Trazado_21528" data-name="Trazado 21528" d="M25.982,4.172a2.124,2.124,0,0,0,2.087-2.087,2.087,2.087,0,0,0-4.173,0,2.124,2.124,0,0,0,2.087,2.087" transform="translate(14.139 0)" fill="#c169ff"/>
      <path id="Trazado_21529" data-name="Trazado 21529" d="M18.42,10.423a1.991,1.991,0,0,0,1.926-2.087A2.1,2.1,0,0,0,18.42,6.251a2.086,2.086,0,1,0,0,4.172" transform="translate(9.664 3.698)" fill="#c169ff"/>
      <rect id="Rectángulo_7556" data-name="Rectángulo 7556" width="4.013" height="4.011" transform="translate(64.192 54.242)" fill="#c169ff"/>
      <rect id="Rectángulo_7557" data-name="Rectángulo 7557" width="4.013" height="4.011" transform="translate(58.094 54.242)" fill="#c169ff"/>
      <rect id="Rectángulo_7558" data-name="Rectángulo 7558" width="4.013" height="4.011" transform="translate(52.155 54.242)" fill="#c169ff"/>
      <rect id="Rectángulo_7559" data-name="Rectángulo 7559" width="4.013" height="4.011" transform="translate(46.058 54.242)" fill="#c169ff"/>
      <rect id="Rectángulo_7560" data-name="Rectángulo 7560" width="4.013" height="4.011" transform="translate(40.12 54.242)" fill="#c169ff"/>
      <rect id="Rectángulo_7561" data-name="Rectángulo 7561" width="4.013" height="4.011" transform="translate(34.182 54.242)" fill="#c169ff"/>
      <rect id="Rectángulo_7562" data-name="Rectángulo 7562" width="4.013" height="4.011" transform="translate(28.084 54.242)" fill="#c169ff"/>
      <rect id="Rectángulo_7563" data-name="Rectángulo 7563" width="32.095" height="4.011" transform="translate(26.158 68.364)" fill="#c169ff"/>
      <path id="Trazado_21530" data-name="Trazado 21530" d="M64.043,30.348H15.9a2.123,2.123,0,0,0-2.087,2.085V44.47A1.99,1.99,0,0,0,15.9,46.4H64.043A2.1,2.1,0,0,0,66.13,44.47V32.433a2.022,2.022,0,0,0-2.087-2.085M61.956,42.383H17.985V34.359H62.117Z" transform="translate(8.173 17.957)" fill="#c169ff"/>
      <path id="Trazado_21531" data-name="Trazado 21531" d="M12.29,15.808a6.062,6.062,0,0,0,6.1-5.937,6.062,6.062,0,0,0-6.1-5.939,5.938,5.938,0,0,0,0,11.876m0-8.024A2.086,2.086,0,1,1,10.2,9.871,2.126,2.126,0,0,1,12.29,7.784" transform="translate(3.759 2.326)" fill="#c169ff"/>
      <path id="Trazado_21532" data-name="Trazado 21532" d="M52.431,15.433a7.125,7.125,0,0,0,7.061-7.061,7.061,7.061,0,1,0-14.122,0,7.124,7.124,0,0,0,7.061,7.061m0-10.11a3.049,3.049,0,1,1-3.05,3.05,2.952,2.952,0,0,1,3.05-3.05" transform="translate(26.846 0.775)" fill="#c169ff"/>
    </g>
  </g>
</svg>
