<svg width="107" height="108" viewBox="0 0 107 108" fill="none" xmlns="http://www.w3.org/2000/svg">
<path d="M5.49241 10.3333C2.79907 5.90667 6.70574 -0.373333 11.8524 0.0533332C40.3991 -0.0133335 68.9457 -0.0266665 97.4791 0.0666668C102.012 -0.146667 105.706 4.93333 104.079 9.17333C103.359 12.3467 99.9591 13.1867 97.3724 14.2533C97.3457 21.5067 97.3857 28.7467 97.4124 36C97.3324 37.92 97.6791 40.1733 95.8791 41.4533C94.0257 41.72 92.6124 40.44 92.7591 38.5733C92.5457 30.3867 92.7991 22.2 92.7057 14.0133C68.0391 14.0133 43.3724 14.0133 18.7057 14.0133C18.6124 22.32 18.8791 30.6267 18.6391 38.9333C19.1457 41.5867 14.7724 42.5333 14.3324 39.84C13.5991 31.3867 14.2391 22.8667 14.0391 14.4C11.0257 13.64 7.06574 13.56 5.49241 10.3333ZM9.6524 5.52C8.0924 8.18666 10.8791 9.8 13.2791 9.34667C41.3191 9.25333 69.3591 9.53333 97.3857 9.21333C101.146 9.02667 99.2924 3.92 95.9724 4.73333C69.3324 4.58667 42.6791 4.77333 16.0391 4.64C13.9191 4.76 11.5991 4.41333 9.6524 5.52Z" fill="#C169FF"/>
<path d="M22.9858 21.0667C24.2258 16.68 32.1725 17.28 34.9192 20.04C34.6258 20.8 34.0392 22.32 33.7458 23.08C30.2525 22.4534 25.3325 24.4 22.9858 21.0667Z" fill="#C169FF"/>
<path d="M77.4925 22.9067C75.5992 21.8534 76.4525 20 76.9058 18.4C80.1592 18.4267 83.4125 18.4667 86.6658 18.5067C87.1058 19.2934 87.9725 20.8534 88.3992 21.6267C85.0658 23.48 81.1592 23.6134 77.4925 22.9067Z" fill="#C169FF"/>
<path d="M22.0659 27.7066C26.1993 22.9866 33.0792 25.5066 38.5326 25.2133C38.9059 25.9333 39.6526 27.3733 40.0259 28.0933C34.5993 30.6933 27.3193 30.8133 22.0659 27.7066Z" fill="#C169FF"/>
<path d="M72.2527 29.1866C69.4794 27.8133 72.9194 25.0133 74.6127 25.2266C79.346 25.48 85.506 23.4933 88.826 27.96C83.946 30.9333 77.5727 30.4133 72.2527 29.1866Z" fill="#C169FF"/>
<path d="M20.4925 41.64C26.5725 36.48 36.9192 39.5733 39.3458 47.1066C41.1058 51.1866 39.3858 55.4533 37.3058 59.0133C38.7992 59.9866 40.2925 60.92 41.8125 61.8533C43.2792 60.9866 44.7325 60.1066 46.1725 59.2C44.7058 56.1866 42.6791 52.9866 43.5325 49.4666C44.1725 44.28 48.5458 40.0266 53.6525 39.2133C59.9991 38.0266 66.7192 42.88 67.5725 49.2933C68.3858 52.8133 66.4658 56.04 64.9592 59.0666C66.4525 59.9733 67.9325 60.88 69.4258 61.8C70.9058 60.96 72.3725 60.0933 73.8391 59.2C72.3858 56.2133 70.3991 53.04 71.1725 49.56C71.9191 43.04 78.6658 38.0266 85.1191 39.2133C90.1991 39.96 94.5058 44.2 95.2392 49.3066C96.0525 52.7733 94.1592 55.9733 92.7325 58.9733C95.2658 60.5466 98.0658 62.3466 98.7992 65.48C99.8925 70.8266 99.2392 76.3466 99.3458 81.76C100.919 82.4933 102.559 83.1066 104.012 84.1066C107.599 87.3866 106.306 94.72 101.266 95.76C94.8792 96.3866 88.4392 95.8533 82.0392 96.0133C82.0392 98.3466 82.0392 100.68 82.0525 103.027C86.1992 103.373 90.8792 101.96 94.6658 104.133C95.3725 106.267 93.9992 107.707 91.8525 107.467C66.1858 107.547 40.5058 107.533 14.8258 107.467C12.4258 108.053 10.0258 104.933 12.7592 103.493C16.5192 102.48 20.5325 103.16 24.3858 103.04C24.3725 100.693 24.3725 98.3466 24.3592 96.0133C18.1192 95.88 11.8525 96.3066 5.61249 95.84C0.945819 95.16 -1.77418 88.9733 1.31915 85.2266C3.58582 81.7333 8.15915 82.44 11.7325 82.2266C12.0658 74.2533 9.23915 63.04 18.4392 58.96C14.5192 53.7066 14.8525 45.56 20.4925 41.64ZM24.3325 44.24C19.5325 46.44 18.9592 53.7866 23.2525 56.8C27.4125 60.3466 34.7458 57.5466 35.3325 52.0666C36.6392 46.2133 29.4125 41.2133 24.3325 44.24ZM52.2258 44.12C47.5591 46.08 46.5191 52.9733 50.3191 56.28C54.3325 60.56 62.4791 57.8266 63.0258 51.9466C64.1458 46.2266 57.3058 41.3866 52.2258 44.12ZM79.2525 44.4133C74.9725 46.84 74.3992 53.4933 78.2792 56.56C82.4258 60.48 90.2258 57.6533 90.6925 51.8933C91.8525 45.88 84.3058 41.1333 79.2525 44.4133ZM16.4658 67.9466C16.1858 72.6266 16.4125 77.32 16.3725 82.0133C18.1192 82.0133 19.8525 82.0266 21.5991 82.0266C23.1725 77.0933 24.0658 71.9333 26.1325 67.1866C26.9458 66.84 28.5592 66.1733 29.3592 65.84C31.1058 71.2 32.5858 76.6266 34.1592 82.0266C35.4525 82.0266 38.0525 82.0133 39.3592 82.0133C39.3192 77.3733 39.5858 72.7333 39.2258 68.1066C39.3192 65.5466 37.1592 63.1866 34.5858 63.1333C30.1725 62.84 25.7192 62.88 21.3058 63.12C18.6925 63.04 16.3992 65.3333 16.4658 67.9466ZM44.2925 66.7333C43.6925 71.92 44.1458 77.1466 44.0525 82.36C51.7058 82.3466 59.3725 82.3466 67.0258 82.3466C66.9191 77.1866 67.3858 71.9733 66.7725 66.8266C65.8658 62.84 61.2258 63.12 58.0525 62.7733C57.8392 67.64 58.7192 72.6533 57.3458 77.4C56.6658 77.5066 55.3191 77.7333 54.6391 77.8533C51.4525 73.7066 53.6658 67.68 52.9992 62.76C49.8658 63.1333 45.2391 62.8266 44.2925 66.7333ZM72.2658 65.76C71.0525 71.1866 71.9592 76.8533 71.7192 82.3733C73.4792 82.3599 75.2392 82.3333 76.9992 82.2799C78.5192 77.4399 79.3458 72.36 81.3458 67.6933C82.1992 65.8933 83.3592 65.68 84.8525 67.08C86.9858 71.9733 87.8925 77.3066 89.5192 82.3866C91.2525 82.3733 92.9725 82.36 94.6925 82.3333C94.4525 76.9066 95.4125 71.3066 94.0392 66C92.2525 62.2133 87.3725 63.2133 83.9992 62.9466C80.0925 63.28 74.8125 61.8533 72.2658 65.76ZM27.8525 83.08C30.0925 82.4666 29.5858 78.4533 27.6258 77.8C25.4925 78.4 25.6258 82.6 27.8525 83.08ZM81.4792 82.2133C82.2925 82.28 83.8925 82.3999 84.6925 82.4666C84.1858 80.5866 83.6658 78.72 83.1591 76.84C82.5991 78.6266 82.0392 80.4266 81.4792 82.2133ZM5.55915 87.0133C3.37248 88.9866 5.25248 91.8933 7.98582 91.2933C37.3192 91.4533 66.6658 91.2533 96.0125 91.3866C98.0925 91.28 101.052 91.7866 101.906 89.2133C101.586 86.1466 98.3458 86.7866 96.1592 86.6533C69.9058 86.7066 43.6658 86.68 17.4125 86.6666C13.4658 86.72 9.47915 86.4 5.55915 87.0133ZM29.3858 103.56C31.8525 101.787 31.3058 98.6933 31.5458 96.0666C30.8925 96.04 29.6125 95.9866 28.9592 95.96C29.0525 98.4933 29.1325 101.027 29.3858 103.56ZM36.0658 96.0133C36.0392 98.3466 35.9992 100.68 35.9592 103.013C47.5058 103.027 59.0392 102.987 70.5858 103.027C70.4658 100.693 70.3858 98.3466 70.3058 96C58.8925 96.0266 47.4792 96.0133 36.0658 96.0133ZM74.8791 96.0533C75.1991 98.5866 74.3192 101.867 77.0925 103.32C77.2792 100.893 77.3725 98.4533 77.4392 96.0133C76.7992 96.0133 75.5191 96.04 74.8791 96.0533Z" fill="#C169FF"/>
<path d="M5.73253 102.987C7.93253 102.707 10.7325 103.747 9.09253 106.373C6.87919 109.2 2.55919 105.053 5.73253 102.987Z" fill="#C169FF"/>
<path d="M99.3456 107.893C96.9589 106.32 96.5322 104.133 98.5456 101.96C99.7322 102.92 100.946 103.867 102.159 104.8C101.452 105.573 100.052 107.12 99.3456 107.893Z" fill="#C169FF"/>
</svg>
