<svg xmlns="http://www.w3.org/2000/svg" xmlns:xlink="http://www.w3.org/1999/xlink" width="86.65" height="88.858" viewBox="0 0 86.65 88.858">
  <defs>
    <clipPath id="clip-path">
      <rect id="Rectángulo_7512" data-name="Rectángulo 7512" width="86.65" height="88.858" fill="#c169ff"/>
    </clipPath>
  </defs>
  <g id="Grupo_11458" data-name="Grupo 11458" transform="translate(-15 -29)">
    <g id="Grupo_11457" data-name="Grupo 11457" transform="translate(15 29)" clip-path="url(#clip-path)">
      <path id="Trazado_21417" data-name="Trazado 21417" d="M29.114,41.2a1.982,1.982,0,1,1-2,1.983,1.992,1.992,0,0,1,2-1.983" transform="translate(14.21 21.595)" fill="#c169ff"/>
      <path id="Trazado_21418" data-name="Trazado 21418" d="M15.954,48.2a1.373,1.373,0,1,1-1.387,1.372A1.38,1.38,0,0,1,15.954,48.2" transform="translate(7.635 25.264)" fill="#c169ff"/>
      <path id="Trazado_21419" data-name="Trazado 21419" d="M46.3,52a1.372,1.372,0,1,1-1.387,1.37A1.379,1.379,0,0,1,46.3,52" transform="translate(23.543 27.256)" fill="#c169ff"/>
      <path id="Trazado_21420" data-name="Trazado 21420" d="M53.282,2a1.372,1.372,0,1,1-1.387,1.37A1.379,1.379,0,0,1,53.282,2" transform="translate(27.201 1.049)" fill="#c169ff"/>
      <path id="Trazado_21421" data-name="Trazado 21421" d="M41.852.1a1.379,1.379,0,0,1,1.387,1.372,1.388,1.388,0,0,1-2.775,0A1.38,1.38,0,0,1,41.852.1" transform="translate(21.209 0.053)" fill="#c169ff"/>
      <path id="Trazado_21422" data-name="Trazado 21422" d="M7.76,2A1.372,1.372,0,1,1,6.373,3.37,1.379,1.379,0,0,1,7.76,2" transform="translate(3.34 1.049)" fill="#c169ff"/>
      <path id="Trazado_21423" data-name="Trazado 21423" d="M1.994,50.1A1.372,1.372,0,1,1,.607,51.472,1.38,1.38,0,0,1,1.994,50.1" transform="translate(0.318 26.261)" fill="#c169ff"/>
      <path id="Trazado_21424" data-name="Trazado 21424" d="M11.134,49.4a6.707,6.707,0,1,0,6.784,6.706A6.805,6.805,0,0,0,11.134,49.4m0,11.431a4.725,4.725,0,1,1,4.78-4.725,4.678,4.678,0,0,1-4.78,4.725" transform="translate(2.28 25.893)" fill="#c169ff"/>
      <path id="Trazado_21425" data-name="Trazado 21425" d="M79.558,10.517H62.6v-2.9a.787.787,0,0,0-.308-.61L55.505.3a1.18,1.18,0,0,0-.616-.3H24.978a.989.989,0,0,0-.925.914v9.6H7.092A7.033,7.033,0,0,0,0,17.528V64.472a7.033,7.033,0,0,0,7.092,7.011H27.906v.152a4.779,4.779,0,0,0,4.781,4.725h2.928v5.792H28.369a3.353,3.353,0,1,0,0,6.706H58.281a3.353,3.353,0,1,0,0-6.706H51.033V76.36h2.929a4.777,4.777,0,0,0,4.78-4.725v-.152H79.558a7.033,7.033,0,0,0,7.092-7.011V17.528a7.033,7.033,0,0,0-7.092-7.011M7.708,54.411H79.095v3.81H7.708Zm71.233-1.98H7.708V18.137H24.053V47.706a.989.989,0,0,0,.925.914H61.672a.989.989,0,0,0,.925-.914V18.137H78.941ZM26.057,1.981H54.58l6.167,6.1V46.79H26.057ZM59.668,85.353a1.373,1.373,0,0,1-1.387,1.372H28.369a1.372,1.372,0,1,1,0-2.743H58.281c.771-.152,1.387.61,1.387,1.372M49.183,82H37.619V76.208H49.183Zm7.709-10.364a2.747,2.747,0,0,1-2.774,2.743H32.687a2.749,2.749,0,0,1-2.777-2.743v-.152ZM84.8,64.472a5.169,5.169,0,0,1-5.242,5.181H7.092A5.169,5.169,0,0,1,1.85,64.472V17.528a5.169,5.169,0,0,1,5.242-5.182H24.053v3.81H6.784a.988.988,0,0,0-.925.913V58.983a.989.989,0,0,0,.925.916H80.02a.989.989,0,0,0,.925-.916V17.223a.99.99,0,0,0-.925-.916H62.6V12.5H79.558A5.169,5.169,0,0,1,84.8,17.68Z" transform="translate(0 0)" fill="#c169ff"/>
      <path id="Trazado_21426" data-name="Trazado 21426" d="M54.5,51.3a1.372,1.372,0,1,1-1.387,1.37A1.379,1.379,0,0,1,54.5,51.3" transform="translate(27.837 26.89)" fill="#c169ff"/>
      <path id="Trazado_21427" data-name="Trazado 21427" d="M21.916,12.675a1.167,1.167,0,0,0,.617.3,1.168,1.168,0,0,0,.616-.3l4.78-4.726a1.126,1.126,0,0,0,0-1.37,1.16,1.16,0,0,0-1.387,0l-4.164,4.114-1.387-1.37a1.163,1.163,0,0,0-1.389,0,1.126,1.126,0,0,0,0,1.37Z" transform="translate(10.154 3.329)" fill="#c169ff"/>
      <path id="Trazado_21428" data-name="Trazado 21428" d="M27.529,11.327H40.018a.989.989,0,0,0,.925-.914.988.988,0,0,0-.925-.913H27.529a.99.99,0,0,0-.925.913.884.884,0,0,0,.925.914" transform="translate(13.945 4.98)" fill="#c169ff"/>
      <path id="Trazado_21429" data-name="Trazado 21429" d="M27.582,8.827h5.7a.99.99,0,0,0,.925-.914A.99.99,0,0,0,33.287,7H27.428a.99.99,0,0,0-.925.913,1.027,1.027,0,0,0,1.079.914" transform="translate(13.892 3.669)" fill="#c169ff"/>
      <path id="Trazado_21430" data-name="Trazado 21430" d="M21.916,20.8a1.17,1.17,0,0,0,.617.3,1.172,1.172,0,0,0,.616-.3l4.78-4.725a1.128,1.128,0,0,0,0-1.372c-.308-.457-.925-.3-1.387,0l-4.164,4.115-1.387-1.372a1.163,1.163,0,0,0-1.389,0,1.128,1.128,0,0,0,0,1.372Z" transform="translate(10.154 7.554)" fill="#c169ff"/>
      <path id="Trazado_21431" data-name="Trazado 21431" d="M27.539,19.327H40.028a.914.914,0,1,0,0-1.827H27.539a.99.99,0,0,0-.925.913c-.154.611.309.914.925.914" transform="translate(13.934 9.173)" fill="#c169ff"/>
      <path id="Trazado_21432" data-name="Trazado 21432" d="M27.582,16.827h5.7a.914.914,0,1,0,0-1.827H27.428a.99.99,0,0,0-.925.913c0,.611.463.914,1.079.914" transform="translate(13.892 7.863)" fill="#c169ff"/>
      <path id="Trazado_21433" data-name="Trazado 21433" d="M21.916,28.895a1.159,1.159,0,0,0,.617.3,1.16,1.16,0,0,0,.616-.3l4.78-4.725a1.128,1.128,0,0,0,0-1.372c-.308-.457-.925-.3-1.387,0l-4.164,4.115-1.387-1.37a1.163,1.163,0,0,0-1.389,0,1.126,1.126,0,0,0,0,1.37Z" transform="translate(10.154 11.799)" fill="#c169ff"/>
      <path id="Trazado_21434" data-name="Trazado 21434" d="M27.539,27.528H40.028a.915.915,0,1,0,0-1.829H27.539a.991.991,0,0,0-.925.914c-.154.457.309.914.925.914" transform="translate(13.934 13.471)" fill="#c169ff"/>
      <path id="Trazado_21435" data-name="Trazado 21435" d="M27.582,25.028h5.7a.915.915,0,1,0,0-1.829H27.428a.991.991,0,0,0-.925.914,1.027,1.027,0,0,0,1.079.914" transform="translate(13.892 12.16)" fill="#c169ff"/>
    </g>
  </g>
</svg>
